<?xml version="1.0" encoding="UTF-8" standalone="no"?>
<svg
   xmlns:dc="http://purl.org/dc/elements/1.1/"
   xmlns:cc="http://creativecommons.org/ns#"
   xmlns:rdf="http://www.w3.org/1999/02/22-rdf-syntax-ns#"
   xmlns:svg="http://www.w3.org/2000/svg"
   xmlns="http://www.w3.org/2000/svg"
   xmlns:sodipodi="http://sodipodi.sourceforge.net/DTD/sodipodi-0.dtd"
   xmlns:inkscape="http://www.inkscape.org/namespaces/inkscape"
   version="1.1"
   id="Capa_1"
   x="0px"
   y="0px"
   width="35"
   height="29.350552"
   viewBox="0 0 34.999999 29.35055"
   xml:space="preserve"
   sodipodi:docname="back-arrow.svg"
   inkscape:version="1.0.2 (e86c870879, 2021-01-15)"><metadata
   id="metadata41"><rdf:RDF><cc:Work
       rdf:about=""><dc:format>image/svg+xml</dc:format><dc:type
         rdf:resource="http://purl.org/dc/dcmitype/StillImage" /><dc:title></dc:title></cc:Work></rdf:RDF></metadata><defs
   id="defs39" /><sodipodi:namedview
   pagecolor="#ffffff"
   bordercolor="#666666"
   borderopacity="1"
   objecttolerance="10"
   gridtolerance="10"
   guidetolerance="10"
   inkscape:pageopacity="0"
   inkscape:pageshadow="2"
   inkscape:window-width="2560"
   inkscape:window-height="1377"
   id="namedview37"
   showgrid="false"
   inkscape:zoom="16.125493"
   inkscape:cx="22.789751"
   inkscape:cy="19.111179"
   inkscape:window-x="1912"
   inkscape:window-y="-8"
   inkscape:window-maximized="1"
   inkscape:current-layer="Capa_1"
   inkscape:document-rotation="0"
   fit-margin-top="0"
   fit-margin-left="0"
   fit-margin-right="0"
   fit-margin-bottom="0" />
<g
   id="g4"
   style="fill:#ffffff"
   transform="matrix(0.76788965,0,0,0.76788965,-1.9188962e-4,-2.8249291)">
	<path
   d="M 45.506,33.532 C 43.765,26.112 38.345,15.774 21.952,13.59 V 7.047 C 21.952,5.683 21.126,4.454 19.865,3.934 18.604,3.413 17.153,3.705 16.19,4.671 L 1.305,19.63 c -1.739,1.748 -1.74,4.572 -10e-4,6.32 L 16.19,40.909 c 0.961,0.966 2.415,1.258 3.676,0.737 1.261,-0.521 2.087,-1.75 2.087,-3.113 v -6.331 c 5.593,0.007 13.656,0.743 19.392,4.313 0.953,0.594 2.168,0.555 3.08,-0.101 0.91,-0.652 1.338,-1.79 1.081,-2.882 z"
   id="path2"
   style="fill:#ffffff" />
</g>
<g
   id="g6"
   transform="translate(-2.4989218e-4,-3.6788217)">
</g>
<g
   id="g8"
   transform="translate(-2.4989218e-4,-3.6788217)">
</g>
<g
   id="g10"
   transform="translate(-2.4989218e-4,-3.6788217)">
</g>
<g
   id="g12"
   transform="translate(-2.4989218e-4,-3.6788217)">
</g>
<g
   id="g14"
   transform="translate(-2.4989218e-4,-3.6788217)">
</g>
<g
   id="g16"
   transform="translate(-2.4989218e-4,-3.6788217)">
</g>
<g
   id="g18"
   transform="translate(-2.4989218e-4,-3.6788217)">
</g>
<g
   id="g20"
   transform="translate(-2.4989218e-4,-3.6788217)">
</g>
<g
   id="g22"
   transform="translate(-2.4989218e-4,-3.6788217)">
</g>
<g
   id="g24"
   transform="translate(-2.4989218e-4,-3.6788217)">
</g>
<g
   id="g26"
   transform="translate(-2.4989218e-4,-3.6788217)">
</g>
<g
   id="g28"
   transform="translate(-2.4989218e-4,-3.6788217)">
</g>
<g
   id="g30"
   transform="translate(-2.4989218e-4,-3.6788217)">
</g>
<g
   id="g32"
   transform="translate(-2.4989218e-4,-3.6788217)">
</g>
<g
   id="g34"
   transform="translate(-2.4989218e-4,-3.6788217)">
</g>
</svg>
